PathFileType	4	(X/Y/Z)	s02c0301.trc
DataRate	CameraRate	NumFrames	NumMarkers	Units	OrigDataRate	OrigDataStartFrame	OrigNumFrames
200	200	6	51	mm	200	250	2000
Frame#	Time	racr			lacr			c7			jug			rlel			rdr			llel			ldr			s2			lic			ric			lasi			rasi			rpsi			lpsi			rgt			lgt			rth1			rth2			rth3			rth4			rlfc			rmfc			rsh1			rsh2			rsh3			rsh4			rlmal			rmmal			rcal			rtoe			rmt5			rmt1			lth1			lth2			lth4			lth3			llfc			lmfc			lsh1			lsh2			lsh3			lsh4			llmal			lmmal			lcal			ltoe			lmt5			SBIKE			LBIKE			RBIKE			
		X1	Y1	Z1	X2	Y2	Z2	X3	Y3	Z3	X4	Y4	Z4	X5	Y5	Z5	X6	Y6	Z6	X7	Y7	Z7	X8	Y8	Z8	X9	Y9	Z9	X10	Y10	Z10	X11	Y11	Z11	X12	Y12	Z12	X13	Y13	Z13	X14	Y14	Z14	X15	Y15	Z15	X16	Y16	Z16	X17	Y17	Z17	X18	Y18	Z18	X19	Y19	Z19	X20	Y20	Z20	X21	Y21	Z21	X22	Y22	Z22	X23	Y23	Z23	X24	Y24	Z24	X25	Y25	Z25	X26	Y26	Z26	X27	Y27	Z27	X28	Y28	Z28	X29	Y29	Z29	X30	Y30	Z30	X31	Y31	Z31	X32	Y32	Z32	X33	Y33	Z33	X34	Y34	Z34	X35	Y35	Z35	X36	Y36	Z36	X37	Y37	Z37	X38	Y38	Z38	X39	Y39	Z39	X40	Y40	Z40	X41	Y41	Z41	X42	Y42	Z42	X43	Y43	Z43	X44	Y44	Z44	X45	Y45	Z45	X46	Y46	Z46	X47	Y47	Z47	X48	Y48	Z48	X49	Y49	Z49	X50	Y50	Z50	X51	Y51	Z51	
250	1.2500	525.961145	1302.092706	-124.016312	555.048549	1277.466217	-451.059779	539.180422	1312.429667	-295.258472	485.288126	1185.904444	-286.030872	566.426445	1026.517991	-66.665871	725.264373	871.670221	-119.266054	569.197236	1013.042231	-568.708701	712.498203	839.887605	-507.590437	11.745058	1123.029160	-331.284944	166.130238	1111.937424	-461.796693	138.729931	1123.787328	-182.809604	197.711826	1062.218146	-440.157095	195.819453	1098.462475	-206.501340	40.341620	1169.286949	-286.803077	56.340052	1181.608952	-370.808380	110.317302	1054.100932	-143.582508	98.372886	1023.257329	-501.765163	191.942954	1021.654878	-137.024973	276.943097	1001.092657	-140.380218	341.369623	949.226375	-115.690918	291.936993	1025.042153	-165.901544	453.918079	849.355441	-146.428027	449.375430	833.048724	-257.446328	444.219626	736.114644	-130.829302	431.293567	649.839899	-152.594624	382.260533	578.877340	-146.992764	441.848651	649.204398	-189.623658	324.205668	476.141113	-153.126077	328.600444	494.713372	-234.386260	252.658182	418.002906	-193.659294	537.990500	442.341865	-192.188251	431.932573	414.187810	-131.376960	455.899176	433.797477	-240.645958	201.707394	921.297371	-514.749870	268.500803	865.365451	-511.575391	294.922826	884.234319	-493.718045	296.900699	780.881627	-510.677990	345.278095	692.987015	-482.846174	337.332139	666.719331	-376.925765	298.931267	599.731608	-503.339810	265.261790	521.910049	-485.927303	195.953821	464.490402	-492.475503	278.741525	515.446083	-448.123971	117.143750	389.875422	-480.942868	129.640441	380.085262	-402.399205	36.943794	382.559854	-442.545771	254.486203	195.758453	-437.201943	158.897905	240.754680	-501.590567	-128.394754	870.512592	-314.401283	33.344031	82.345236	-515.440391	33.053160	82.129743	-115.129093	
251	1.2550	526.801991	1301.221527	-122.384716	557.252479	1276.605621	-449.974904	540.751715	1311.616609	-294.237024	486.397606	1185.352965	-285.317502	565.140858	1025.283074	-66.310318	724.945532	871.630926	-119.292500	568.968307	1012.635306	-568.869072	712.427099	839.631510	-507.415520	12.634971	1124.273560	-331.742311	167.074026	1112.795880	-462.026555	139.340690	1124.914045	-183.128693	198.424085	1062.955053	-440.397116	196.370712	1099.347287	-206.760294	41.362096	1170.602592	-287.126565	57.445253	1183.102799	-371.120020	110.711445	1055.180983	-143.835987	99.329942	1024.254931	-501.941060	192.249309	1022.170206	-137.211794	277.179791	1001.192040	-140.315583	341.224162	948.884958	-115.703329	292.296639	1025.051702	-165.926220	453.234232	848.445648	-146.372652	448.706063	832.251509	-257.297305	443.549114	735.191238	-130.746404	430.775514	648.903245	-152.553893	381.963811	577.753650	-147.003471	441.343943	648.317679	-189.616735	324.054146	474.715368	-153.382783	328.635123	493.435332	-234.639470	252.702264	416.628793	-193.697387	537.891623	442.195535	-192.055909	432.194755	414.202312	-130.552126	455.858851	433.343303	-240.563835	202.626175	922.204086	-514.717767	269.330200	866.100322	-511.344990	295.727448	884.926651	-493.403945	297.482100	781.566005	-510.289666	345.651057	693.405214	-482.173099	337.193719	667.405989	-376.047930	299.190490	600.292719	-502.774841	265.416508	522.493702	-485.429574	196.132049	465.065923	-492.260983	278.766881	516.047947	-447.512334	117.108451	390.486701	-480.885812	129.593526	380.668698	-402.315708	36.847998	383.155061	-442.560615	254.246661	196.092353	-437.157645	158.705750	241.199021	-501.518756	-128.362176	870.529096	-314.328926	33.346369	82.356046	-515.443986	33.056704	82.127482	-115.133797	
252	1.2600	527.666258	1300.294797	-120.809646	559.400753	1275.761694	-448.910038	542.335862	1310.953109	-293.143632	487.482988	1184.782389	-284.540697	563.944996	1023.999528	-66.085139	724.635439	871.568763	-119.295802	568.909280	1012.276947	-569.108038	712.376985	839.442181	-507.290145	13.661204	1125.508411	-331.521153	168.125288	1113.547992	-462.189259	139.998063	1125.810879	-183.325287	199.106987	1063.648358	-440.472817	196.879714	1100.048102	-207.023563	42.477952	1171.889924	-287.546358	58.479025	1184.535268	-371.415107	111.220166	1056.382068	-144.137978	100.331468	1025.239356	-502.130024	192.645581	1022.729535	-137.427005	277.434833	1001.274384	-140.412137	341.169431	948.617755	-115.730043	292.736988	1024.990231	-166.031468	452.481975	847.495744	-146.402065	447.937700	831.207678	-257.207776	442.842109	734.209402	-130.672756	430.205660	647.848004	-152.616912	381.523088	576.730065	-147.082850	440.812558	647.348411	-189.613201	323.751437	473.856990	-153.244769	328.331983	492.340618	-234.603252	252.751007	415.189126	-193.759957	537.818193	442.048834	-191.917196	432.174540	413.496141	-130.467985	455.810856	432.832662	-240.465263	203.496102	922.992789	-514.710077	270.006098	866.666590	-510.957442	296.487569	885.527190	-493.117213	298.085923	782.161852	-509.939432	345.884399	693.924511	-481.532058	336.982230	667.953468	-375.297539	299.464394	600.839699	-502.178564	265.574914	523.041376	-484.976884	196.258809	465.699767	-491.927920	278.740135	516.391408	-447.016629	116.960905	391.063472	-480.831489	129.476202	381.262183	-402.234545	36.727485	383.748040	-442.589352	254.006178	196.512785	-437.134241	158.447767	241.688616	-501.473311	-128.323704	870.556234	-314.296726	33.345063	82.357760	-515.437275	33.055805	82.129664	-115.121546	
253	1.2650	528.552012	1299.527660	-119.173608	561.552025	1274.935239	-447.968623	543.899172	1310.160505	-292.058812	488.631522	1184.196867	-283.686554	563.006767	1022.667484	-66.121310	724.346123	871.486729	-119.310018	569.019742	1012.071591	-569.431823	712.320057	839.308596	-507.190408	14.817521	1126.760868	-331.227229	169.190392	1114.298673	-462.375971	140.598141	1126.850379	-183.609242	199.842059	1064.165358	-440.483127	197.395865	1100.736048	-207.292657	43.500315	1173.276825	-287.956737	59.420048	1185.908687	-371.664906	111.697718	1057.396656	-144.423056	101.348883	1026.163004	-502.359186	193.097633	1023.309868	-137.620614	277.811514	1001.331400	-140.577971	341.224754	948.351054	-115.817928	293.225781	1024.856857	-166.234559	451.821084	846.470917	-146.365736	447.221442	830.186627	-257.179261	442.138576	733.141450	-130.668054	429.770950	646.748742	-152.674773	381.255883	575.516444	-147.388707	440.272396	646.315868	-189.628338	323.630520	472.338601	-153.563223	328.220614	491.026516	-234.803214	252.811252	413.702283	-193.846463	537.754368	441.845734	-191.796096	432.009126	412.178901	-131.140270	455.825487	432.262280	-240.396692	204.390530	923.739729	-514.731811	270.829741	867.362216	-510.935585	297.212112	886.039321	-492.708500	298.631659	782.647647	-509.575845	346.161811	694.461777	-480.797898	336.770227	668.476941	-374.625827	299.716337	601.352946	-501.621960	265.682163	523.647809	-484.463615	196.327872	466.285380	-491.634453	278.695007	517.162367	-446.381009	116.780813	391.744200	-480.772022	129.308777	381.869715	-402.155991	36.517658	384.345060	-442.613153	253.732888	197.048808	-437.094654	158.188267	242.135090	-501.460955	-128.288165	870.567576	-314.263110	33.343781	82.372189	-515.430981	33.051957	82.142268	-115.121531	
254	1.2700	529.497812	1298.745757	-117.759646	563.773936	1274.232399	-447.129298	545.469280	1309.486446	-290.986201	489.808962	1183.746439	-282.808888	561.943720	1021.560938	-66.028497	724.088242	871.455357	-119.358757	569.326982	1011.999774	-569.804973	712.296001	839.172004	-507.210726	15.739285	1127.983664	-331.712065	170.237563	1115.117370	-462.560099	141.277822	1127.658799	-183.851587	200.521674	1064.757651	-440.551778	197.934611	1101.468115	-207.555684	44.606805	1174.619932	-288.391678	60.429565	1187.277734	-371.967706	112.196952	1058.385568	-144.768454	102.360997	1027.121759	-502.566238	193.603670	1023.821680	-137.860345	278.215295	1001.407915	-140.719784	341.207885	948.293666	-115.875248	293.755057	1024.747792	-166.477486	451.091500	845.422050	-146.390972	446.402127	829.040460	-257.073566	441.406225	732.106569	-130.685345	429.228198	645.830415	-152.590372	380.970650	574.365735	-147.466636	439.819712	645.272602	-189.676200	323.407667	471.220031	-153.689476	327.813988	489.767784	-234.800135	252.883006	412.195563	-193.954978	537.696129	441.636014	-191.692108	432.290886	412.096048	-130.361062	455.829327	431.687150	-240.319727	205.279648	924.399638	-514.725206	271.589368	867.857046	-510.676243	297.893290	886.492653	-492.330232	299.196063	783.134260	-509.230438	346.468263	694.851092	-480.056899	336.560242	669.013963	-373.898493	299.910455	601.839680	-501.067939	265.772704	524.139279	-484.002812	196.367004	466.856441	-491.309189	278.550458	517.668981	-445.780369	116.571612	392.319263	-480.752297	129.109660	382.496883	-402.079313	36.280993	384.913474	-442.620839	253.468250	197.504345	-437.031944	157.912856	242.666292	-501.431653	-128.261519	870.564466	-314.235027	33.340612	82.383565	-515.436119	33.055166	82.132491	-115.108907	
255	1.2750	530.517624	1298.136313	-116.487825	565.935123	1273.573323	-446.269035	547.069627	1308.784589	-289.979262	490.893971	1183.128954	-281.994373	561.122123	1020.530254	-66.026579	723.930488	871.472165	-119.411666	569.801610	1011.948921	-570.195598	712.354038	839.016309	-507.237891	16.438717	1129.275141	-333.008771	171.351128	1115.798505	-462.729019	141.901610	1128.655442	-184.164675	201.991606	1065.746812	-441.884237	198.479880	1102.050694	-207.799207	45.627851	1175.924618	-288.781303	61.614453	1188.564682	-372.333812	112.715788	1059.406876	-145.011199	103.438392	1027.964407	-502.761373	194.146325	1024.252532	-138.103169	278.640914	1001.471515	-140.949117	341.362124	948.012789	-116.048409	294.276248	1024.624970	-166.771737	450.387981	844.442433	-146.523392	445.655872	827.995513	-256.986024	440.633627	731.058329	-130.722696	428.596145	644.607465	-152.742104	380.481069	573.230102	-147.565551	439.277050	644.292211	-189.667342	323.240705	469.905661	-153.846963	327.596451	488.514750	-235.076344	252.965409	410.673373	-194.080603	537.625049	441.457792	-191.563456	432.334338	411.392082	-130.283004	455.784662	431.101601	-240.247675	206.107521	924.989927	-514.660619	272.322883	868.351642	-510.408763	298.579009	886.924247	-491.883509	299.747295	783.571912	-508.941832	346.721262	695.304999	-479.432213	336.363583	669.532095	-373.306832	300.098437	602.420641	-500.494365	265.898361	524.744558	-483.495890	196.414203	467.590122	-491.092731	278.620077	518.258149	-445.391381	116.376163	393.014976	-480.696214	128.896796	383.147946	-402.002693	36.056909	385.557293	-442.653286	253.162428	197.953477	-437.015752	157.689537	243.261945	-501.470429	-128.242630	870.591684	-314.228505	33.348381	82.378919	-515.441397	33.063500	82.122515	-115.106795	
